<?xml version="1.0" standalone="yes"?>

<svg version="1.1" viewBox="0.0 0.0 179.08923884514437 237.80839895013122" fill="none" stroke="none" stroke-linecap="square" stroke-miterlimit="10" xmlns="http://www.w3.org/2000/svg" xmlns:xlink="http://www.w3.org/1999/xlink"><clipPath id="p.0"><path d="m0 0l179.08923 0l0 237.8084l-179.08923 0l0 -237.8084z" clip-rule="nonzero"></path></clipPath><g clip-path="url(#p.0)"><path fill="#000000" fill-opacity="0.0" d="m0 0l179.08923 0l0 237.8084l-179.08923 0z" fill-rule="nonzero"></path><path fill="#f1c232" d="m-0.001312336 22.31496l0 0c0 12.324211 39.962994 22.31496 89.25984 22.31496c49.296844 0 89.25984 -9.990749 89.25984 -22.31496l0 192.81891c0 12.3242035 -39.962997 22.314957 -89.25984 22.314957c-49.29685 0 -89.25984 -9.990753 -89.25984 -22.314957z" fill-rule="nonzero"></path><path fill="#f6da84" d="m-0.001312336 22.31496l0 0c0 -12.324212 39.962994 -22.31496 89.25984 -22.31496c49.296844 -1.3530226E-14 89.25984 9.990748 89.25984 22.31496l0 0c0 12.324211 -39.962997 22.31496 -89.25984 22.31496c-49.29685 0 -89.25984 -9.990749 -89.25984 -22.31496z" fill-rule="nonzero"></path><path fill="#000000" fill-opacity="0.0" d="m178.51837 22.31496l0 0c0 12.324211 -39.962997 22.31496 -89.25984 22.31496c-49.29685 0 -89.25984 -9.990749 -89.25984 -22.31496l0 0c0 -12.324212 39.962994 -22.31496 89.25984 -22.31496c49.296844 -1.3530226E-14 89.25984 9.990748 89.25984 22.31496l0 192.81891c0 12.3242035 -39.962997 22.314957 -89.25984 22.314957c-49.29685 0 -89.25984 -9.990753 -89.25984 -22.314957l0 -192.81891" fill-rule="nonzero"></path><path fill="#000000" fill-opacity="0.0" d="m89.96326 23.377953l88.18898 0l0 192.8819l-88.18898 0z" fill-rule="nonzero"></path><path stroke="#000000" stroke-width="1.0" stroke-linejoin="round" stroke-linecap="butt" d="m89.96326 23.377953l88.18898 0l0 192.8819l-88.18898 0z" fill-rule="nonzero"></path><path fill="#000000" fill-opacity="0.0" d="m55.885826 147.78459l125.07087 0l0 71.84253l-125.07087 0z" fill-rule="nonzero"></path><path fill="#000000" d="m140.04349 102.623985l0 -6.734375l7.265625 0l0 6.734375l-7.265625 0zm7.265625 3.71875l0 26.625008q0 5.265625 -0.6875 7.421875q-0.6875 2.15625 -2.640625 3.375q-1.953125 1.21875 -4.984375 1.21875q-1.078125 0 -2.34375 -0.203125q-1.25 -0.1875 -2.703125 -0.578125l1.265625 -6.203125q0.53125 0.09375 0.984375 0.15625q0.453125 0.078125 0.828125 0.078125q1.125 0 1.828125 -0.484375q0.71875 -0.484375 0.953125 -1.15625q0.234375 -0.671875 0.234375 -4.03125l0 -26.218758l7.265625 0zm14.660019 27.484383l-7.265625 0l0 -27.484383l6.75 0l0 3.90625q1.734375 -2.765625 3.109375 -3.640625q1.390625 -0.890625 3.15625 -0.890625q2.484375 0 4.78125 1.375l-2.25 6.34375q-1.84375 -1.1875 -3.421875 -1.1875q-1.515625 0 -2.578125 0.84375q-1.0625 0.828125 -1.671875 3.03125q-0.609375 2.203125 -0.609375 9.21875l0 8.484383z" fill-rule="nonzero"></path><path fill="#000000" d="m132.21594 184.09274q0 -7.640625 4.234375 -11.3125q3.546875 -3.0625 8.640625 -3.0625q5.671875 0 9.265625 3.71875q3.609375 3.71875 3.609375 10.265625q0 5.296875 -1.59375 8.34375q-1.59375 3.03125 -4.640625 4.71875q-3.03125 1.6875 -6.640625 1.6875q-5.765625 0 -9.328125 -3.703125q-3.546875 -3.703125 -3.546875 -10.65625zm4.78125 0q0 5.265625 2.296875 7.90625q2.3125 2.625 5.796875 2.625q3.46875 0 5.765625 -2.640625q2.3125 -2.640625 2.3125 -8.046875q0 -5.109375 -2.3125 -7.734375q-2.3125 -2.625 -5.765625 -2.625q-3.484375 0 -5.796875 2.625q-2.296875 2.609375 -2.296875 7.890625zm26.580444 -18.796875l0 -5.40625l4.65625 0l0 5.40625l-4.65625 0zm-5.90625 43.1875l0.890625 -3.953125q1.390625 0.359375 2.1875 0.359375q1.4375 0 2.125 -0.953125q0.703125 -0.9375 0.703125 -4.71875l0 -28.875l4.65625 0l0 28.984375q0 5.078125 -1.3125 7.0625q-1.6875 2.59375 -5.59375 2.59375q-1.890625 0 -3.65625 -0.5z" fill-rule="nonzero"></path></g></svg>

